#!OML:ASF E:\Steps\Project 1\Capture day 1\Session 2\Subject.ASF
:FULLY-SPECIFIED
:DEGREES
686
root -1.27617 18.0089 21.1905 -153.321 -1.8355 177.861
lowerback -23.6158 -2.05305 -6.93699
upperback 0.140365 -1.07462 0.222615
thorax 13.6154 -1.08379 3.83925
lowerneck -5.76783 -0.933014 1.79676
upperneck 25.172 -3.52377 -0.765273
head 8.74687 -2.31078 -1.00009
rclavicle -7.95139e-016 -4.96962e-015
rhumerus -41.294 -16.906 -76.6983
rradius 37.8644
rwrist -1.58374
rhand -9.98192 -55.6621
rfingers 7.12502
rthumb 16.0011 -85.0213
lclavicle -7.95139e-016 -4.96962e-015
lhumerus -33.2222 4.39588 78.789
lradius 30.2284
lwrist -1.18694
lhand -23.365 -14.0643
lfingers 7.12502
lthumb 3.09058 15.8931
rfemur -28.8633 7.7567 17.2405
rtibia 12.7737
rfoot -19.7971 -6.39291
rtoes -13.0992
lfemur -27.0893 -11.07 -20.5813
ltibia 10.1395
lfoot -6.83471 -3.91528
ltoes -23.23
687
root -1.26809 18.0108 21.1899 -153.358 -1.89406 177.712
lowerback -23.5143 -2.12434 -7.03128
upperback 0.12498 -1.14821 0.187549
thorax 13.5505 -1.12019 3.82802
lowerneck -5.14009 -1.07167 1.90919
upperneck 24.0726 -3.57723 -0.701092
head 8.25249 -2.28981 -0.963566
rclavicle -1.21756e-014 3.57812e-015
rhumerus -41.2096 -16.9613 -76.6931
rradius 38.0271
rwrist -1.69153
rhand -9.85295 -56.165
rfingers 7.12502
rthumb 16.1252 -85.5142
lclavicle -1.21756e-014 3.57812e-015
lhumerus -33.1843 4.70812 78.7014
lradius 29.7888
lwrist -1.42299
lhand -22.9572 -14.2678
lfingers 7.12502
lthumb 3.48446 15.6834
rfemur -28.7858 7.81765 17.0777
rtibia 12.7242
rfoot -19.8601 -6.46654
rtoes -12.1236
lfemur -27.0555 -11.2446 -20.6881
ltibia 10.1568
lfoot -6.89152 -3.86852
ltoes -23.5149
688
root -1.25972 18.0119 21.19 -153.31 -1.93637 177.676
lowerback -23.5524 -2.18797 -7.04706
upperback 0.110395 -1.22977 0.205015
thorax 13.5658 -1.16009 3.82798
lowerneck -5.08699 -1.0476 2.0099
upperneck 23.7267 -3.46171 -0.821013
head 8.12259 -2.22218 -1.00092
rclavicle 1.63003e-014 7.95139e-015
rhumerus -41.059 -16.9689 -76.6626
rradius 38.066
rwrist -1.91584
rhand -10.0372 -55.8529
rfingers 7.12502
rthumb 15.9478 -85.2163
lclavicle 1.63003e-014 7.95139e-015
lhumerus -33.1065 5.27291 78.5966
lradius 29.2791
lwrist -1.84556
lhand -23.0907 -14.2628
lfingers 7.12502
lthumb 3.35548 15.6905
rfemur -28.8323 7.90411 17.0256
rtibia 12.7035
rfoot -19.908 -6.48355
rtoes -11.0903
lfemur -27.1612 -11.3109 -20.6565
ltibia 10.2411
lfoot -6.93496 -3.88064
ltoes -23.5246
689
root -1.25123 18.0082 21.1868 -153.173 -2.00396 177.651
lowerback -23.7593 -2.23584 -7.04423
upperback 0.105361 -1.28256 0.215179
thorax 13.6834 -1.18956 3.81674
lowerneck -5.50512 -1.03637 2.07581
upperneck 23.7905 -3.39449 -0.977746
head 8.21684 -2.18506 -1.0657
rclavicle -7.15625e-015 -4.57205e-015
rhumerus -40.9424 -16.9698 -76.6551
rradius 38.2993
rwrist -2.12641
rhand -9.90085 -56.0143
rfingers 7.12502
rthumb 16.0791 -85.3672
lclavicle -7.15625e-015 -4.57205e-015
lhumerus -33.0042 5.75832 78.5221
lradius 28.8017
lwrist -2.28003
lhand -23.3374 -13.9705
lfingers 7.12502
lthumb 3.11723 15.9865
rfemur -28.9819 7.79795 17.0716
rtibia 12.8102
rfoot -20.0267 -6.4298
rtoes -10.6222
lfemur -27.3206 -11.2647 -20.6474
ltibia 10.2777
lfoot -6.83608 -4.03676
ltoes -23.5229
690
root -1.24529 18.0049 21.172 -153.27 -1.96392 177.583
lowerback -23.8448 -2.21601 -7.02844
upperback 0.148124 -1.24438 0.170415
thorax 13.7761 -1.17232 3.76838
lowerneck -5.60734 -1.09487 1.94034
upperneck 23.593 -3.4452 -0.824167
head 8.1729 -2.1924 -0.992274
rclavicle 4.47266e-015 -2.34566e-014
rhumerus -40.9004 -16.8781 -76.6662
rradius 38.6112
rwrist -2.53857
rhand -9.52885 -56.7177
rfingers 7.12502
rthumb 16.4373 -86.0413
lclavicle 4.47266e-015 -2.34566e-014
lhumerus -33.0896 5.80417 78.5687
lradius 28.5452
lwrist -2.33557
lhand -23.5287 -13.6742
lfingers 7.12502
lthumb 2.93249 16.2854
rfemur -28.7525 7.59556 17.1206
rtibia 12.7684
rfoot -20.0483 -6.2537
rtoes -11.0314
lfemur -27.0349 -11.3326 -20.7538
ltibia 10.0853
lfoot -6.74767 -3.91474
ltoes -23.7712
691
root -1.23789 18.0043 21.1597 -153.384 -1.91309 177.511
lowerback -23.8801 -2.21435 -7.06474
upperback 0.17118 -1.22487 0.15295
thorax 13.8215 -1.16682 3.77547
lowerneck -5.63396 -1.084 1.77179
upperneck 23.5105 -3.42795 -0.645895
head 8.15625 -2.17704 -0.901541
rclavicle -3.18055e-015 -1.88845e-014
rhumerus -40.8785 -16.7571 -76.619
rradius 38.7694
rwrist -2.96218
rhand -9.40242 -56.9317
rfingers 7.12502
rthumb 16.559 -86.2452
lclavicle -3.18055e-015 -1.88845e-014
lhumerus -33.1872 5.81188 78.6294
lradius 28.2886
lwrist -2.23802
lhand -23.408 -13.3887
lfingers 7.12502
lthumb 3.04906 16.5692
rfemur -28.4855 7.57926 17.0672
rtibia 12.5917
rfoot -19.9889 -6.19557
rtoes -11.3372
lfemur -26.7859 -11.5258 -20.7972
ltibia 9.9417
lfoot -6.79131 -3.64296
ltoes -23.4671
692
root -1.22234 18.0053 21.1582 -153.456 -1.96584 177.477
lowerback -23.7482 -2.25738 -7.15864
upperback 0.139224 -1.2705 0.166248
thorax 13.7177 -1.19105 3.83015
lowerneck -4.87304 -1.08905 1.99768
upperneck 21.9145 -3.17459 -0.835994
head 7.48082 -2.00556 -0.933128
rclavicle 4.57205e-015 4.17448e-015
rhumerus -40.9319 -16.7409 -76.5556
rradius 38.828
rwrist -3.22125
rhand -9.67978 -56.6859
rfingers 7.12502
rthumb 16.292 -86.0214
lclavicle 4.57205e-015 4.17448e-015
lhumerus -33.2152 6.00487 78.5677
lradius 27.9398
lwrist -2.28861
lhand -22.9524 -13.2561
lfingers 7.12502
lthumb 3.48905 16.6951
rfemur -28.3374 7.885 17.044
rtibia 12.5004
rfoot -20.0577 -6.4733
rtoes -10.9868
lfemur -26.7113 -11.5097 -20.7837
ltibia 9.96588
lfoot -6.79445 -3.75565
ltoes -22.5432
693
root -1.21037 18.003 21.155 -153.448 -2.0445 177.491
lowerback -23.6887 -2.25773 -7.07908
upperback 0.0824599 -1.30148 0.1383
thorax 13.6176 -1.19572 3.74227
lowerneck -5.32167 -1.12212 2.0252
upperneck 22.1532 -3.25257 -0.755957
head 7.64065 -2.02861 -0.928981
rclavicle 7.95139e-016 1.15295e-014
rhumerus -40.962 -16.6724 -76.608
rradius 38.7881
rwrist -3.39855
rhand -10.1239 -56.4696
rfingers 7.12502
rthumb 15.8643 -85.8397
lclavicle 7.95139e-016 1.15295e-014
lhumerus -33.2371 6.21922 78.4592
lradius 27.5883
lwrist -2.43784
lhand -22.719 -13.542
lfingers 7.12502
lthumb 3.71448 16.4053
rfemur -28.2983 8.14908 17.042
rtibia 12.4366
rfoot -20.1876 -6.73916
rtoes -10.1414
lfemur -26.7582 -11.805 -20.6285
ltibia 10.064
lfoot -6.83309 -3.54127
ltoes -22.4646
694
root -1.19956 18.0014 21.1524 -153.351 -2.01198 177.432
lowerback -23.7842 -2.24092 -7.07923
upperback 0.0392066 -1.27206 0.0700278
thorax 13.6144 -1.18141 3.67288
lowerneck -5.12366 -0.997567 2.24771
upperneck 21.5467 -2.9763 -0.898791
head 7.40285 -1.86925 -0.974972
rclavicle 3.52843e-015 -2.62396e-014
rhumerus -40.9077 -16.6563 -76.7114
rradius 38.7294
rwrist -3.38179
rhand -10.3226 -56.6422
rfingers 7.12502
rthumb 15.673 -86.0274
lclavicle 3.52843e-015 -2.62396e-014
lhumerus -33.1648 6.3579 78.3879
lradius 27.1955
lwrist -2.58694
lhand -22.745 -13.7621
lfingers 7.12502
lthumb 3.68937 16.1857
rfemur -28.3859 8.11988 17.0122
rtibia 12.395
rfoot -20.2586 -6.70316
rtoes -9.76571
lfemur -26.9041 -11.9987 -20.6057
ltibia 10.2041
lfoot -6.9236 -3.23376
ltoes -23.8543
